<svg xmlns="http://www.w3.org/2000/svg" width="32" height="32" fill="none">
  <path fill="#b01028" d="M20.545 32c1.454-1 2.727-2.546 2.727-5.818V6.546h1.455v19.636c0 3.636-1.818 5.09-4.182 5.818"/>
  <path fill="#b01028" d="M21.729 32c1.363-.636 3.726-1.818 3.726-5.818V6.546h1.455v19.636c0 4.91-3.818 5.636-5.181 5.818"/>
  <path fill="#b01028" d="M19.636 32c1.085-1.091 1.454-3.273 1.454-6.182V6.546h1.455v19.636c0 3.263-1.091 4.91-2.91 5.818"/>
  <path fill="#231f20" d="M12.546 0C14 1 15.273 2.546 15.273 5.818v22.545h1.455V5.818c0-3.636-1.818-5.09-4.182-5.818"/>
  <path fill="#231f20" d="M13.729 0c1.363.636 3.727 1.818 3.727 5.818v22.545h1.454V5.818C18.91.909 15.092.182 13.729 0"/>
  <path fill="#231f20" d="M11.637 0c1.085 1.09 1.454 3.273 1.454 6.182v22.182h1.455V5.817c0-3.263-1.091-4.909-2.91-5.818"/>
  <path fill="#006b3b" d="M11.455 32c-1.454-1-2.727-2.546-2.727-5.818V6.546H7.273v19.636c0 3.636 1.819 5.09 4.182 5.818"/>
  <path fill="#006b3b" d="M10.272 32c-1.364-.636-3.728-1.818-3.728-5.818V6.546H5.09v19.636c0 4.91 3.818 5.636 5.182 5.818"/>
  <path fill="#006b3b" d="M12.364 32c-1.085-1.091-1.454-3.273-1.454-6.182V6.546H9.455v19.636c0 3.263 1.091 4.91 2.91 5.818"/>
</svg>