<svg xmlns="http://www.w3.org/2000/svg" width="32" height="32" fill="none">
  <path fill="#002fff" d="M15.329.044c-2.827.214-5.114 1.879-6.265 4.562-1.223 2.857-.993 7.443.492 9.723.914 1.413 1.914 2.084 5.058 3.386 2.51 1.042 2.97 1.27 3.36 1.642.515.497.57.82.57 3.33 0 2.076-.007 2.186-.182 2.62-.222.537-.73 1.034-1.222 1.184-.445.127-1.747.127-2.208-.008-.484-.134-1.032-.71-1.278-1.318-.151-.402-.183-.647-.215-1.752l-.032-1.278H8l.048 1.594c.023 1.002.087 1.815.166 2.17.532 2.455 2.327 4.594 4.622 5.525 1.016.41 1.93.576 3.216.576 2.16 0 3.7-.474 5.074-1.57 1.42-1.137 2.215-2.644 2.668-5.099.206-1.089.206-4.798.008-6.022-.318-1.957-1.072-3.33-2.375-4.333-.698-.528-1.572-.954-3.859-1.87-1.151-.466-2.27-.931-2.493-1.042-.58-.292-1.064-.765-1.215-1.2-.183-.497-.254-2.335-.127-3.156.238-1.523 1.048-2.305 2.39-2.305.969 0 1.652.387 2.025 1.137.35.71.437 1.176.437 2.391v1.129H24l-.04-1.997c-.032-1.76-.055-2.06-.206-2.58-.365-1.232-1.152-2.487-2.096-3.37C20.443.982 18.72.178 17.274.067a20 20 0 0 1-.833-.063c-.151-.016-.651.008-1.112.04"/>
</svg>