<svg xmlns="http://www.w3.org/2000/svg" width="32" height="32" fill="none">
  <path fill="#ed216f" d="M13.898 1.5h4.204c1.74 0 3.19 1.454 3.19 3.198 0 1.745-1.45 3.198-3.19 3.198h-4.204c-1.74 0-3.19-1.453-3.19-3.198.072-1.744 1.45-3.198 3.19-3.198M8.605 12.766c-1.74 0-3.19 1.453-3.19 3.197 0 1.745 1.45 3.199 3.19 3.199h6.163c1.74 0 3.19-1.454 3.19-3.199s-1.45-3.197-3.19-3.197zm14.79 0c-1.74 0-3.19 1.453-3.19 3.197 0 1.745 1.45 3.199 3.19 3.199s3.19-1.454 3.19-3.199c-.072-1.744-1.45-3.197-3.19-3.197M13.245 24.03H27.31c1.74 0 3.19 1.454 3.19 3.198 0 1.745-1.45 3.198-3.19 3.198H13.245c-1.74 0-3.19-1.453-3.19-3.198s1.45-3.198 3.19-3.198m-8.555 0c-1.74 0-3.19 1.454-3.19 3.271 0 1.744 1.45 3.198 3.19 3.198s3.19-1.454 3.19-3.198c-.072-1.817-1.45-3.27-3.19-3.27"/>
</svg>