<svg width="32" height="32" viewBox="0 0 32 32" fill="none" xmlns="http://www.w3.org/2000/svg">
<path d="M13.8254 1H18.1755C19.9755 1 21.4756 2.50376 21.4756 4.30827C21.4756 6.11278 19.9755 7.61654 18.1755 7.61654H13.8254C12.0254 7.61654 10.5254 6.11278 10.5254 4.30827C10.6004 2.50376 12.0254 1 13.8254 1Z" fill="#ED216F"/>
<path d="M8.34985 12.6541C6.54983 12.6541 5.0498 14.1579 5.0498 15.9624C5.0498 17.7669 6.54983 19.2707 8.34985 19.2707H14.725C16.525 19.2707 18.025 17.7669 18.025 15.9624C18.025 14.1579 16.525 12.6541 14.725 12.6541H8.34985Z" fill="#ED216F"/>
<path d="M23.6506 12.6541C21.8506 12.6541 20.3506 14.1579 20.3506 15.9624C20.3506 17.7669 21.8506 19.2707 23.6506 19.2707C25.4507 19.2707 26.9507 17.7669 26.9507 15.9624C26.8757 14.1579 25.4507 12.6541 23.6506 12.6541Z" fill="#ED216F"/>
<path d="M13.1497 24.3083H27.6999C29.4999 24.3083 30.9999 25.812 30.9999 27.6165C30.9999 29.4211 29.4999 30.9248 27.6999 30.9248H13.1497C11.3496 30.9248 9.84961 29.4211 9.84961 27.6165C9.84961 25.812 11.3496 24.3083 13.1497 24.3083Z" fill="#ED216F"/>
<path d="M4.30005 24.3083C2.50002 24.3083 1 25.812 1 27.6917C1 29.4962 2.50002 31 4.30005 31C6.10008 31 7.6001 29.4962 7.6001 27.6917C7.5251 25.812 6.10008 24.3083 4.30005 24.3083Z" fill="#ED216F"/>
</svg>
